<?xml version="1.0" standalone="no"?>
<!DOCTYPE svg PUBLIC "-//W3C//DTD SVG 20010904//EN"
 "http://www.w3.org/TR/2001/REC-SVG-20010904/DTD/svg10.dtd">
<svg version="1.0" xmlns="http://www.w3.org/2000/svg"
 width="653.000000pt" height="218.000000pt" viewBox="0 0 653.000000 218.000000"
 preserveAspectRatio="xMidYMid meet">
<metadata>
Created by potrace 1.13, written by Peter Selinger 2001-2015
</metadata>
<g transform="translate(0.000000,218.000000) scale(0.100000,-0.100000)"
fill="#000000" stroke="none">
<path d="M971 613 c-16 -61 -17 -86 -4 -90 6 -2 17 6 24 19 7 13 19 28 28 35
16 13 141 18 141 7 0 -4 -49 -82 -110 -174 -60 -91 -110 -169 -110 -173 0 -4
78 -7 174 -7 l174 0 11 31 c25 71 -2 111 -33 50 -18 -34 -31 -40 -106 -48
-103 -10 -103 -6 6 163 53 82 103 158 112 169 16 18 16 19 0 7 -17 -14 -202
-293 -213 -324 -9 -22 46 -33 113 -23 55 8 88 26 97 55 3 11 11 20 17 20 12 0
4 -68 -10 -82 -5 -5 -81 -7 -170 -6 l-161 3 109 165 c60 91 110 171 110 178 0
8 -20 12 -69 12 -58 0 -72 -3 -95 -25 -14 -13 -26 -29 -26 -35 0 -5 -4 -10 -9
-10 -5 0 -5 18 0 43 15 67 17 71 33 58 9 -8 60 -11 157 -8 l144 3 -147 2 c-85
1 -149 6 -153 12 -12 19 -24 10 -34 -27z"/>
<path d="M1575 620 c-22 -11 -31 -17 -20 -14 67 22 96 26 138 20 l47 -7 0 -40
0 -40 -34 35 c-35 38 -70 46 -98 24 -44 -35 -21 -91 53 -128 77 -40 112 -105
89 -166 -9 -24 -9 -27 2 -16 7 7 13 32 12 56 -1 55 -31 96 -95 131 -57 31 -81
61 -72 93 12 46 92 37 115 -13 19 -41 38 -31 38 19 0 25 -5 48 -11 51 -6 4
-36 9 -67 11 -44 4 -66 0 -97 -16z"/>
<path d="M150 617 c0 -7 13 -18 29 -23 19 -8 46 -38 80 -87 28 -42 51 -80 51
-85 0 -5 -18 -35 -41 -68 -29 -42 -32 -49 -10 -24 16 19 38 49 47 66 l17 31
-52 77 c-29 42 -67 86 -84 97 l-32 19 94 0 c84 0 93 -2 76 -14 -19 -14 -19
-14 0 -49 10 -19 26 -46 36 -58 l17 -23 36 57 c20 31 36 59 36 62 0 3 -10 10
-22 15 -17 6 -2 9 52 8 60 0 69 -2 45 -9 -21 -6 -48 -31 -84 -79 l-54 -70 53
-80 c28 -43 58 -84 66 -91 8 -6 -14 29 -48 79 l-61 91 49 66 c50 67 88 89 129
75 13 -4 40 -45 73 -110 49 -96 53 -108 50 -164 -3 -55 -5 -61 -25 -64 -13 -2
-23 -10 -23 -18 0 -11 20 -14 100 -14 82 0 100 3 100 15 0 9 -9 15 -25 15 -24
0 -25 2 -25 70 0 75 4 87 68 197 25 43 45 65 65 72 16 6 26 15 22 21 -9 14
-145 13 -145 -1 0 -6 9 -13 20 -16 11 -3 20 -8 20 -12 -1 -3 -18 -39 -39 -80
l-37 -73 -32 71 c-36 81 -38 91 -17 91 8 0 15 7 15 15 0 13 -26 15 -170 15
-144 0 -170 -2 -170 -15 0 -8 9 -15 20 -15 26 0 26 0 -11 -61 l-32 -51 -28 46
c-33 52 -36 66 -14 66 8 0 15 7 15 15 0 12 -18 15 -100 15 -75 0 -100 -3 -100
-13z m565 -11 c-18 -13 -18 -16 9 -79 48 -113 48 -113 95 -19 22 45 41 84 41
87 0 3 -10 10 -22 15 -17 6 -5 9 47 9 58 -1 65 -2 43 -11 -27 -9 -68 -68 -117
-166 -18 -34 -21 -57 -19 -115 3 -66 5 -72 28 -78 14 -4 -16 -7 -70 -8 -83 -1
-92 1 -70 12 22 11 25 20 28 73 3 56 -1 68 -50 165 -36 70 -61 108 -78 116
-22 11 -13 13 64 13 79 0 88 -2 71 -14z"/>
<path d="M3050 617 c0 -7 10 -17 23 -22 21 -10 22 -14 22 -165 0 -151 -1 -155
-22 -165 -13 -5 -23 -15 -23 -22 0 -10 25 -13 95 -13 78 0 95 3 95 15 0 8 -9
15 -20 15 -24 0 -32 28 -28 101 l3 54 80 0 80 0 3 -54 c4 -71 -3 -97 -28 -104
-11 -3 -20 -10 -20 -16 0 -7 33 -11 95 -11 78 0 95 3 95 15 0 8 -8 15 -19 15
-26 0 -31 26 -31 170 0 143 4 166 31 173 10 3 19 10 19 16 0 7 -33 11 -95 11
-78 0 -95 -3 -95 -15 0 -8 9 -15 19 -15 24 0 31 -19 31 -86 l0 -54 -85 0 -85
0 0 60 c0 52 3 61 25 76 14 9 25 20 25 25 0 5 -43 9 -95 9 -70 0 -95 -3 -95
-13z m162 -9 c-27 -13 -34 -38 -30 -104 l3 -49 90 0 90 0 3 49 c4 66 -4 95
-31 106 -15 6 6 9 68 8 50 0 82 -2 72 -5 -29 -8 -37 -46 -37 -183 0 -137 8
-175 37 -183 10 -3 -22 -5 -72 -5 -49 0 -83 2 -75 5 30 11 40 37 40 104 0 78
-1 79 -95 79 -94 0 -95 -1 -95 -79 0 -67 10 -93 40 -104 8 -3 -25 -6 -75 -6
-72 0 -86 2 -70 11 11 6 23 16 27 22 4 6 8 76 8 156 0 80 -4 150 -8 156 -4 6
-16 16 -27 22 -16 9 -2 11 70 11 73 0 86 -2 67 -11z"/>
<path d="M1522 578 c-16 -16 -15 -76 1 -108 7 -14 39 -43 72 -65 74 -50 94
-85 71 -121 -11 -16 -26 -24 -45 -24 -33 0 -86 40 -96 70 -4 11 -13 20 -22 20
-13 0 -15 -9 -10 -46 7 -63 24 -77 100 -82 51 -3 72 0 105 17 23 12 42 24 42
26 0 3 -19 -4 -42 -16 -33 -17 -54 -20 -105 -17 -34 2 -68 9 -74 15 -6 6 -13
30 -16 54 l-6 43 45 -47 c33 -35 52 -47 74 -47 35 0 47 8 62 37 21 39 -4 77
-86 129 -29 19 -57 46 -62 60 -14 35 -12 88 2 102 7 7 10 12 7 12 -3 0 -10 -5
-17 -12z"/>
<path d="M2899 507 c-19 -18 -44 -37 -55 -44 -17 -11 -18 -13 -3 -25 12 -10
17 -36 21 -95 6 -105 22 -127 86 -120 41 4 86 32 77 47 -2 4 -16 5 -30 3 -31
-7 -45 25 -45 102 0 53 0 54 33 57 24 2 32 8 32 23 0 15 -8 21 -32 23 -27 3
-33 8 -33 27 0 36 -12 36 -51 2z m77 -37 c24 0 34 -5 34 -15 0 -10 -11 -15
-35 -15 l-35 0 0 -62 c0 -79 16 -113 53 -113 45 1 7 -26 -45 -32 -61 -7 -71 8
-76 118 -3 67 -8 89 -18 89 -20 0 -17 18 4 24 10 4 32 20 48 37 l29 31 3 -31
c3 -28 7 -31 38 -31z"/>
<path d="M1861 469 c-41 -18 -43 -20 -27 -37 12 -14 16 -38 16 -90 0 -61 -3
-73 -20 -82 -38 -20 -20 -30 55 -30 58 0 75 3 75 14 0 8 -5 16 -12 18 -7 3
-14 32 -16 74 -4 77 9 101 48 89 18 -6 20 -15 20 -85 0 -61 -3 -79 -16 -84
-33 -13 0 -26 67 -26 65 0 90 12 54 26 -23 9 -22 162 1 171 35 13 49 -11 52
-87 2 -58 0 -75 -13 -82 -32 -19 -12 -28 60 -28 70 0 97 12 60 26 -11 5 -15
23 -15 75 0 61 -19 139 -34 139 -3 0 2 -16 10 -35 7 -19 14 -66 14 -104 0 -56
3 -72 18 -80 13 -8 -1 -10 -53 -10 -52 0 -66 2 -52 10 14 8 17 24 17 84 0 77
-13 105 -49 105 -32 0 -41 -22 -41 -102 0 -63 3 -79 18 -87 13 -8 -1 -10 -53
-10 -52 0 -66 2 -52 10 14 8 17 24 17 89 0 70 -3 81 -20 90 -29 15 -59 3 -66
-27 -10 -38 2 -145 18 -154 8 -5 -15 -9 -57 -9 -66 0 -68 1 -47 16 19 13 22
24 22 88 0 56 -4 77 -16 87 -14 12 -12 15 22 30 51 23 68 23 60 3 -5 -13 -2
-15 16 -9 53 17 99 17 118 0 15 -14 22 -15 42 -4 13 7 41 16 63 20 39 6 39 7
7 8 -18 0 -47 -6 -63 -15 -28 -14 -32 -14 -48 0 -20 18 -73 21 -101 6 -13 -7
-19 -6 -24 5 -7 19 -21 18 -75 -6z"/>
<path d="M2653 472 c-41 -16 -54 -34 -33 -47 6 -3 10 -41 10 -84 0 -70 -2 -79
-20 -84 -11 -3 -23 -1 -26 4 -3 5 -13 9 -24 9 -24 0 -30 19 -30 101 0 82 -18
109 -74 109 -65 0 -136 -43 -136 -82 0 -31 48 -23 68 12 18 32 31 37 50 18 27
-27 14 -53 -38 -71 -60 -22 -80 -40 -79 -75 1 -27 1 -27 8 3 4 22 17 35 48 51
23 12 51 24 62 27 39 10 17 87 -24 87 -8 0 -21 -13 -30 -30 -17 -33 -59 -43
-53 -14 5 28 54 57 105 61 70 7 83 -9 83 -98 0 -77 11 -109 38 -109 15 -1 15
-2 -2 -15 -23 -18 -67 -20 -83 -4 -8 8 -20 8 -46 -1 -26 -10 -42 -10 -66 -2
-17 6 -29 7 -26 2 10 -16 66 -22 96 -9 23 9 33 9 42 0 16 -16 59 -14 87 6 17
12 25 13 28 5 2 -8 32 -12 88 -12 68 0 84 3 84 15 0 8 -9 15 -20 15 -18 0 -20
7 -20 80 0 44 3 80 6 80 3 0 14 -5 25 -10 27 -15 59 4 59 36 0 30 -24 41 -61
27 -22 -8 -29 -8 -33 3 -6 17 -8 16 -63 -4z m57 -8 c0 -12 5 -14 18 -9 9 4 29
10 45 13 23 4 27 1 27 -21 0 -29 -23 -41 -51 -27 -32 18 -39 3 -39 -81 0 -73
2 -80 23 -89 16 -6 0 -9 -58 -9 -58 0 -74 3 -57 9 20 9 22 16 22 89 0 44 -4
83 -10 86 -18 11 -10 22 28 38 49 20 52 20 52 1z"/>
<path d="M3923 470 c-42 -19 -42 -19 -28 -47 8 -15 15 -54 15 -86 0 -45 -4
-61 -20 -74 -11 -10 -20 -21 -20 -25 0 -5 34 -8 75 -8 77 0 89 7 60 36 -10 11
-15 35 -15 77 0 76 9 92 44 83 25 -6 26 -9 26 -85 0 -61 -3 -80 -15 -85 -37
-14 -10 -26 60 -26 72 0 92 9 60 28 -13 7 -15 24 -13 88 3 69 5 79 22 82 31 6
46 -26 46 -99 0 -50 -4 -68 -15 -73 -37 -14 -10 -26 60 -26 70 0 97 12 60 26
-11 5 -15 23 -15 75 0 61 -19 139 -34 139 -3 0 2 -16 10 -35 7 -19 14 -66 14
-104 0 -56 3 -72 18 -80 13 -8 -1 -10 -53 -10 -52 0 -66 2 -52 10 13 8 17 23
17 72 0 83 -8 106 -36 113 -42 11 -54 -10 -54 -97 0 -64 3 -80 18 -88 13 -8 0
-10 -52 -11 -59 0 -67 2 -52 13 14 10 16 26 14 92 -3 77 -4 80 -31 90 -24 8
-31 6 -44 -10 -20 -27 -14 -162 7 -175 10 -7 -7 -10 -52 -10 l-68 0 20 20 c24
24 28 120 6 162 -14 26 -13 26 28 42 52 20 57 20 49 -1 -5 -13 -2 -15 18 -8
55 17 100 17 119 0 15 -14 22 -15 42 -4 13 7 41 16 63 20 39 6 39 7 7 8 -18 0
-47 -6 -63 -15 -28 -14 -32 -14 -49 1 -19 17 -74 17 -113 0 -12 -5 -17 -3 -15
6 5 20 -23 20 -69 -1z"/>
<path d="M3640 473 c-26 -11 -65 -44 -77 -66 -7 -12 -12 -41 -13 -64 -1 -142
224 -167 269 -30 17 51 0 109 -41 138 -31 22 -108 35 -138 22z m120 -22 c63
-33 75 -120 24 -181 -46 -54 -159 -50 -204 7 -23 29 -27 92 -8 126 33 62 120
85 188 48z"/>
<path d="M3666 447 c-35 -26 -38 -144 -4 -184 19 -23 58 -16 68 13 11 28 12
96 1 133 -10 35 -42 54 -65 38z m58 -48 c8 -40 8 -87 0 -117 -5 -18 -13 -22
-33 -20 -22 3 -28 10 -38 50 -12 51 -3 115 18 129 21 12 46 -8 53 -42z"/>
<path d="M4456 472 c-2 -4 12 -6 32 -4 62 6 69 10 20 11 -26 0 -49 -3 -52 -7z"/>
<path d="M4579 446 c12 -16 21 -37 21 -47 0 -17 -8 -19 -75 -19 -74 0 -75 0
-75 -26 0 -58 96 -109 130 -69 17 21 24 12 11 -13 -27 -51 -134 -51 -177 1
-22 26 -25 38 -22 83 2 29 0 50 -4 47 -5 -2 -8 -26 -8 -53 0 -94 87 -152 174
-116 34 14 67 59 53 73 -4 3 -15 -1 -25 -10 -10 -10 -31 -17 -46 -17 -32 0
-76 40 -76 69 0 18 8 20 73 23 65 3 72 5 75 24 2 13 -8 34 -23 50 l-27 29 21
-29z"/>
<path d="M4414 438 l-19 -23 23 19 c12 11 22 21 22 23 0 8 -8 2 -26 -19z"/>
<path d="M4482 444 c-27 -19 -28 -41 -2 -49 29 -9 60 4 60 25 0 29 -32 42 -58
24z m46 -23 c-4 -20 -36 -27 -52 -11 -8 8 -6 15 7 25 23 17 49 9 45 -14z"/>
<path d="M297 337 c-42 -69 -45 -84 -19 -90 9 -3 -17 -5 -58 -5 -61 0 -69 2
-44 9 17 5 37 16 44 24 12 14 10 14 -16 1 -16 -8 -37 -17 -46 -20 -10 -3 -18
-10 -18 -16 0 -6 32 -10 80 -10 64 0 80 3 80 15 0 8 -7 15 -15 15 -8 0 -15 3
-15 8 0 13 60 112 68 112 7 0 72 -102 72 -113 0 -3 -9 -7 -20 -10 -11 -3 -20
-10 -20 -16 0 -7 36 -11 105 -11 87 0 105 3 105 15 0 8 -6 15 -14 15 -8 0 -23
2 -33 5 -10 3 -4 -1 12 -9 28 -14 25 -15 -70 -14 -55 0 -90 3 -77 5 12 2 22 9
22 15 0 12 -67 125 -79 132 -4 3 -24 -23 -44 -57z"/>
<path d="M2406 318 c-18 -25 -5 -58 23 -58 18 0 31 25 31 63 0 24 -36 22 -54
-5z m44 -2 c0 -25 -12 -46 -25 -46 -18 0 -24 21 -13 43 10 20 38 23 38 3z"/>
</g>
</svg>
